<svg width="988" height="1040" viewBox="0 0 988 1040" fill="none" xmlns="http://www.w3.org/2000/svg">
<path d="M910.075 873.575L781.96 981.077L492.83 636.506L518 538.5L620.946 529.004L910.075 873.575ZM494 59C748.603 59 955 265.397 955 520C955 616.478 925.362 706.033 874.696 780.06L720.444 596.229C728.585 572.141 733 546.336 733 519.5C733 387.228 625.772 280 493.5 280C361.228 280 254 387.228 254 519.5C254 651.772 361.228 759 493.5 759C511.358 759 528.76 757.044 545.503 753.337L697.075 933.975C635.806 964.087 566.879 981 494 981C239.397 981 33 774.603 33 520C33 265.397 239.397 59 494 59Z" fill="url(#paint0_linear_21_33)"/>
<path d="M779.5 0C782.927 113.15 859.529 203.939 955 208C859.529 212.061 782.927 302.85 779.5 416C776.073 302.85 699.471 212.061 604 208C699.471 203.939 776.073 113.15 779.5 0Z" fill="#2F46B9"/>
<defs>
<linearGradient id="paint0_linear_21_33" x1="33" y1="59" x2="955" y2="981" gradientUnits="userSpaceOnUse">
<stop stop-color="#57CDFF"/>
<stop offset="1" stop-color="#2F46B9"/>
</linearGradient>
</defs>
</svg>
